<svg xmlns="http://www.w3.org/2000/svg" version="1.1" xmlns:xlink="http://www.w3.org/1999/xlink" xmlns:svgjs="http://svgjs.com/svgjs" width="1080" height="720" preserveAspectRatio="none" viewBox="0 0 1080 720"><g mask="url(&quot;#SvgjsMask1009&quot;)" fill="none"><path d="M0 27.39C1.86 10.95 4.48 2.41 20.32 0C94.48 -11.28 100.16 0 180 0C270 0 270 0 360 0C417.94 0 426.57 -19.43 475.89 0C516.57 16.03 501.49 70.91 540 70.91C602.37 70.91 606.98 27.84 677.65 0C696.98 -7.61 698.83 0 720 0C810 0 810 0 900 0C990 0 1035 -45 1080 0C1125 45 1080 90 1080 180C1080 270 1080 270 1080 360C1080 450 1080 450 1080 540C1080 630 1125 675 1080 720C1035 765 990 720 900 720C841.15 720 839.75 727.6 782.31 720C749.75 715.69 751.87 696.18 720 696.18C673.07 696.18 673.03 713.61 624.71 720C583.03 725.52 582.36 720 540 720C450 720 450 720 360 720C270 720 270 720 180 720C90 720 45 765 0 720C-45 675 0 630 0 540C0 450 0 450 0 360C0 270 0 270 0 180C0 103.69 -8.3 100.95 0 27.39" stroke="rgba(151, 160, 255, 1)" stroke-width="2"></path><path d="M900 176.47C898.2 176.47 897.1 177.96 897.1 180C897.1 184.22 897.81 189 900 189C902.59 189 906.67 183.74 906.67 180C906.67 177.48 902.98 176.47 900 176.47" stroke="rgba(45, 206, 137, 1)" stroke-width="2"></path><path d="M720 346.36C712.08 346.36 707.5 353.13 707.5 360C707.5 366.98 712.01 374.06 720 374.06C737.01 374.06 757.5 366.94 757.5 360C757.5 353.09 737.08 346.36 720 346.36" stroke="rgba(30, 205, 239, 1)" stroke-width="2"></path><path d="M180 484.84C150.64 484.84 115.47 515.25 115.47 540C115.47 561.83 149.65 578 180 578C203.02 578 222.22 560.95 222.22 540C222.22 514.37 204.02 484.84 180 484.84" stroke="rgba(245, 54, 92, 1)" stroke-width="2"></path><path d="M540 525.21C531.98 525.21 524.12 530.07 524.12 540C524.12 576.04 531.88 617.14 540 617.14C548.13 617.14 556.62 575.86 556.62 540C556.62 529.89 548.23 525.21 540 525.21" stroke="rgba(251, 99, 64, 1)" stroke-width="2"></path><path d="M0 125.22C34.37 58.62 35.16 40.17 92.9 0C125.16 -22.44 136.45 0 180 0C270 0 270 0 360 0C387.13 0 414.25 -19.64 414.25 0C414.25 62.86 389.21 83.53 360 165C356.94 173.53 349.71 173.33 349.71 180C349.71 184.74 354.27 187.83 360 187.83C370.01 187.83 370.29 182.95 381.18 180C460.29 158.58 463.15 166.82 540 139.09C632.56 105.69 634.03 105.03 720 57.74C760.46 35.48 751.05 13.41 792.86 0C841.05 -15.46 846.43 0 900 0C946.88 0 993.75 -18.59 993.75 0C993.75 25.53 944 41.44 900 88.24C859.39 131.44 865.3 136.97 824.52 180C775.3 231.94 770.6 227.45 720 278.18C680.84 317.45 645 318.8 645 360C645 401.9 672.4 439.69 720 444.38C799.9 452.25 814.12 420.99 900 385.12C915.14 378.8 911.26 372.76 922.04 360C997.92 270.2 997.58 269.91 1073.33 180C1076.56 176.16 1078.09 172.5 1080 172.5C1081.43 172.5 1080 176.25 1080 180C1080 270 1080 270 1080 360C1080 450 1080 450 1080 540C1080 611.06 1119.69 649.47 1080 682.11C1029.69 723.47 987.8 700.71 900 688C807.8 674.65 801.17 673.82 720 630C664.1 599.82 673.66 584.21 625.85 540C583.66 500.99 582.5 463.56 540 463.56C498.54 463.56 473 490.79 457.94 540C433.77 619.01 492.85 662.46 461.54 720C443.88 752.46 410.77 720 360 720C270 720 270 720 180 720C90 720 45 765 0 720C-45 675 0 630 0 540C0 450 0 450 0 360C0 270 0 270 0 180C0 152.61 -12.08 148.62 0 125.22" stroke="rgba(45, 206, 137, 1)" stroke-width="2"></path><path d="M180 412.26C112.02 412.26 30.57 482.69 30.57 540C30.57 590.56 109.71 628 180 628C233.32 628 277.78 588.53 277.78 540C277.78 480.66 235.63 412.26 180 412.26" stroke="rgba(30, 205, 239, 1)" stroke-width="2"></path><path d="M104.21 180C99.79 96.02 130.27 83.61 165.48 0C168.17 -6.39 172.74 0 180 0C236.25 0 284.94 -33.07 292.5 0C305.51 56.93 257.68 90.35 221.14 180C201.43 228.35 206.93 276 180 276C148.46 276 107.05 234.02 104.21 180" stroke="rgba(251, 99, 64, 1)" stroke-width="2"></path><path d="M625.71 180C625.71 162.95 677.49 142.64 720 142.64C740.6 142.64 751.94 162.19 751.94 180C751.94 195.87 739.37 210 720 210C676.26 210 625.71 196.63 625.71 180" stroke="rgba(245, 54, 92, 1)" stroke-width="2"></path><path d="M228.46 360C234.07 306.54 289.8 311.19 360 285.65C445.57 254.52 472.87 224.24 540 246.67C584.12 261.41 582.5 308.01 582.5 360C582.5 385.64 561.71 381.44 540 401.92C466.34 471.44 443.85 458.37 391.76 540C353.85 599.41 374.66 684 360 684C345.44 684 360.48 606.87 333.33 540C294.71 444.87 220.73 433.71 228.46 360" stroke="rgba(45, 206, 137, 1)" stroke-width="2"></path><path d="M1013.88 360C1047.22 321.67 1061.21 282.86 1080 282.86C1094.27 282.86 1080 321.43 1080 360C1080 450 1080 450 1080 540C1080 571.58 1103.32 596.94 1080 603.16C1013.32 620.94 989.76 597.81 900 588C809.76 578.14 806.11 583.99 720 563.82C703.65 559.99 695.08 552.1 695.08 540C695.08 527.53 703.25 518.8 720 514.69C805.71 493.68 824.65 529.43 900 489.77C971.59 452.09 957.22 425.13 1013.88 360" stroke="rgba(151, 160, 255, 1)" stroke-width="2"></path><path d="M45 720C45 709.26 112.07 678 180 678C258.32 678 337.5 709.32 337.5 720C337.5 730.32 258.75 720 180 720C112.5 720 45 730.26 45 720" stroke="rgba(251, 99, 64, 1)" stroke-width="2"></path></g><defs><mask id="SvgjsMask1009"><rect width="1080" height="720" fill="#ffffff"></rect></mask></defs></svg>